<svg width="500" height="500" viewBox="0 0 500 500" fill="none" xmlns="http://www.w3.org/2000/svg">
<g clip-path="url(#clip0_15_13)">
<rect width="500" height="500" rx="35" fill="black"/>
<path d="M71.0885 437.94H142.883C149.306 437.94 154.064 443.91 152.63 450.172L150.988 457.348C148.781 466.988 160.413 473.64 167.602 466.849L181.332 453.879C186.556 448.945 195.125 450.967 197.591 457.717L205.619 479.686C208.09 486.447 216.68 488.461 221.899 483.503L263.719 443.775C267.263 440.408 272.722 440.097 276.626 443.039L315.245 472.148C320.691 476.253 328.557 473.823 330.739 467.362L338.478 444.444C339.802 440.526 343.401 437.826 347.533 437.653L427.729 434.288C432.581 434.085 436.585 430.426 437.223 425.612L446.502 355.672C447.048 351.561 445 347.54 441.354 345.565L408.99 328.027C406.956 326.924 405.366 325.15 404.493 323.007L379.813 262.421C377.382 256.453 381.147 249.778 387.512 248.771L438.882 240.645C445.138 239.656 448.91 233.174 446.679 227.246L421.798 161.133C421.427 160.147 421.214 159.108 421.167 158.056L416.664 57.0217C416.378 50.6158 410.233 46.1255 404.02 47.7138C371.134 56.1219 322.112 66.521 320.662 58.0362C319.221 49.6047 302.139 35.4197 290.693 27.1092C287.967 25.1293 284.415 24.7743 281.296 26.0524C253.08 37.6176 204.573 56.6717 202.64 54.0319C200.763 51.4697 164.44 39.7892 141.883 32.8316C138.237 31.7068 134.291 32.7626 131.69 35.5555C106.244 62.8837 62.5519 110.446 62.5519 113.095C62.5519 116.599 47.6708 193.18 49.7234 196.183C51.1949 198.336 70.9074 232.538 83.6031 254.628C85.985 258.772 85.0925 264.013 81.4829 267.147L45.191 298.657C42.5843 300.921 41.3292 304.368 41.8709 307.778L61.2124 429.51C61.984 434.366 66.1714 437.94 71.0885 437.94Z" fill="#133F15"/>
<path d="M135 121.626C135 99.7023 149.003 86 174.952 86H266.249C346.136 86 395.407 117.53 395.407 189.239C395.407 239.495 352.36 268.27 299.442 275.578L387.644 358.734C394.888 365.585 398 372.436 398 378.831C398 396.644 381.922 414 359.119 414C349.767 414 337.319 410.803 329.021 402.125L213.867 279.232H212.829V378.359C212.829 401.211 196.233 413.985 173.915 413.985C151.596 413.985 135 401.211 135 378.359V121.626ZM212.813 229.889H266.232C294.757 229.889 314.482 214.816 314.482 189.239C314.482 163.204 294.741 149.03 266.232 149.03H212.813V229.889Z" fill="white"/>
<path d="M213.105 378.069L211 68.1248L229.368 68L231.473 377.945L213.105 378.069Z" fill="#133F15"/>
<path d="M115.075 318.005L204.173 259.251C209.998 255.41 210.198 246.935 204.561 242.823L119.804 181" stroke="#133F15" stroke-width="40" stroke-linecap="round"/>
<path d="M115 318.005L204.098 259.25C209.923 255.409 210.123 246.935 204.486 242.823L119.729 181" stroke="white" stroke-width="20" stroke-linecap="round"/>
<rect x="96" y="117" width="39" height="247" fill="#133F15"/>
<path d="M216 289C216 280.716 222.716 274 231 274H337V311H231C222.716 311 216 304.284 216 296V289Z" fill="#133F15"/>
<path d="M236.289 297.095C232.79 290.763 237.37 283 244.604 283H302.243C313.212 283 323.18 289.38 327.774 299.341C328.346 300.583 327.439 302 326.072 302H244.604C241.146 302 237.962 300.121 236.289 297.095Z" fill="white"/>
<rect x="415" y="283.519" width="55.2391" height="64.6131" transform="rotate(-48.7318 415 283.519)" fill="black"/>
<rect x="306" y="-4" width="26" height="28" rx="10" fill="black"/>
<rect x="362" y="24" width="26" height="28" rx="10" fill="black"/>
</g>
<defs>
<clipPath id="clip0_15_13">
<rect width="500" height="500" rx="35" fill="white"/>
</clipPath>
</defs>
</svg>
